<svg xmlns="http://www.w3.org/2000/svg" xmlns:xlink="http://www.w3.org/1999/xlink" width="649.378" height="727.778" viewBox="0 0 649.378 727.778">
  <defs>
    <linearGradient id="linear-gradient" x1="-0.054" y1="0.482" x2="0.99" y2="0.53" gradientUnits="objectBoundingBox">
      <stop offset="0" stop-color="#5e2c8b"/>
      <stop offset="1" stop-color="#231f20"/>
    </linearGradient>
  </defs>
  <g id="Group_3" data-name="Group 3" transform="translate(-1379 864)">
    <g id="search" transform="translate(1379 -864)">
      <path id="Path_21" data-name="Path 21" d="M648.2,259.058h-4V149.513a63.4,63.4,0,0,0-63.4-63.4H348.713a63.4,63.4,0,0,0-63.4,63.4V750.487a63.4,63.4,0,0,0,63.4,63.4H580.8a63.4,63.4,0,0,0,63.4-63.4V337.034h4Z" transform="translate(-285.311 -86.111)" fill="#e6e6e6"/>
      <path id="Path_22" data-name="Path 22" d="M583.358,102.606H553.063A22.495,22.495,0,0,1,532.236,133.6H399.276a22.495,22.495,0,0,1-20.827-30.991h-28.3a47.348,47.348,0,0,0-47.348,47.348V750.046a47.348,47.348,0,0,0,47.348,47.348h233.2a47.348,47.348,0,0,0,47.348-47.348h0V149.954a47.348,47.348,0,0,0-47.348-47.348Z" transform="translate(-285.311 -86.111)" fill="#fff"/>
      <path id="a2804879-ded6-4045-b20f-1f1dde9b938b" d="M611.462,573.93H331.843a5.184,5.184,0,0,1-5.178-5.178V499.391a5.184,5.184,0,0,1,5.178-5.178H611.462a5.184,5.184,0,0,1,5.178,5.178v69.362a5.184,5.184,0,0,1-5.178,5.177ZM331.843,496.284a3.11,3.11,0,0,0-3.107,3.107v69.362a3.11,3.11,0,0,0,3.107,3.107H611.462a3.11,3.11,0,0,0,3.107-3.107V499.391a3.11,3.11,0,0,0-3.107-3.107Z" transform="translate(-285.311 -86.111)" fill="#e6e6e6"/>
      <circle id="b9ad11c9-d8a0-4df6-8741-900b9ec46a35" cx="21.748" cy="21.748" r="21.748" transform="translate(61.03 426.212)" fill="#e6e6e6"/>
      <path id="bd261eec-7ae0-49b0-bf26-57ff03972605" d="M418.317,519.573a3.625,3.625,0,1,0,0,7.25H589.2a3.625,3.625,0,1,0,.14-7.249H418.317Z" transform="translate(-285.311 -86.111)" fill="#e6e6e6"/>
      <path id="e80b4447-8c34-435b-ba6c-5300a190ab24" d="M418.317,541.321a3.625,3.625,0,1,0,0,7.25H589.2a3.625,3.625,0,1,0,.119-7.249h-171Z" transform="translate(-285.311 -86.111)" fill="#e6e6e6"/>
      <path id="e55fcb7d-3a3b-45d8-b167-72fb2263dd92" d="M611.462,689.92H331.843a5.184,5.184,0,0,1-5.178-5.178V615.381a5.184,5.184,0,0,1,5.178-5.178H611.462a5.184,5.184,0,0,1,5.178,5.178v69.362a5.184,5.184,0,0,1-5.178,5.177ZM331.843,612.274a3.11,3.11,0,0,0-3.107,3.107v69.362a3.11,3.11,0,0,0,3.107,3.107H611.462a3.11,3.11,0,0,0,3.107-3.107V615.381a3.11,3.11,0,0,0-3.107-3.107Z" transform="translate(-285.311 -86.111)" fill="#e6e6e6"/>
      <circle id="a50d232f-7710-43e4-8fa9-6ef0443fc454" cx="21.748" cy="21.748" r="21.748" transform="translate(61.03 542.202)" fill="#e6e6e6"/>
      <path id="e49b4965-a9e9-4371-9134-194e44e65c31" d="M418.317,635.563a3.625,3.625,0,1,0,0,7.249H589.2a3.625,3.625,0,1,0,.119-7.249h-171Z" transform="translate(-285.311 -86.111)" fill="#e6e6e6"/>
      <path id="abc4586a-ac92-4255-aae6-84f53baad571" d="M418.317,657.311a3.625,3.625,0,1,0,0,7.25H589.2a3.625,3.625,0,1,0,.119-7.249h-171Z" transform="translate(-285.311 -86.111)" fill="#e6e6e6"/>
      <path id="a9e593af-a319-4e97-9065-f0c2c04624d5" d="M465.768,429.995a98.343,98.343,0,0,1-98.384-98.3v-.082c0-.206,0-.423.012-.629.3-53.879,44.432-97.756,98.372-97.756a98.384,98.384,0,1,1,.011,196.768h-.011Zm0-194.7a96.519,96.519,0,0,0-96.3,95.749c-.011.22-.011.4-.011.564a96.325,96.325,0,1,0,96.325-96.313h-.014Z" transform="translate(-285.311 -86.111)" fill="#e6e6e6"/>
      <circle id="Ellipse_4" data-name="Ellipse 4" cx="40" cy="40" r="40" transform="translate(275.114 382.842)" fill="#fff"/>
      <path id="Path_23" data-name="Path 23" d="M586.533,526.949l-.206,0h-21.5a10.4,10.4,0,1,1-.008-20.794h21.518c.105,0,.22,0,.334,0a10.4,10.4,0,1,1-.138,20.795Z" transform="translate(-285.311 -86.111)" fill="#ebb2fb"/>
      <rect id="Rectangle_9" data-name="Rectangle 9" width="324.033" height="2.241" transform="translate(325.345 725.344)" fill="#3f3d56"/>
      <path id="Path_24" data-name="Path 24" d="M630.621,621.842a6.561,6.561,0,0,1-.63-1.259l-5.163-13.827a6.508,6.508,0,0,1,3.815-8.363l115.242-43.032a6.506,6.506,0,0,1,8.363,3.815L757.411,573a6.5,6.5,0,0,1-3.816,8.363L638.354,624.4a6.507,6.507,0,0,1-7.733-2.556Z" transform="translate(-285.311 -86.111)" fill="#ebb2fb"/>
      <path id="Path_25" data-name="Path 25" d="M743.518,551.788l-46.863,18.687a6,6,0,0,0-4.093,7.2L698,599.45a6,6,0,0,0,8.376,3.975l46.992-22.119a6.011,6.011,0,0,0,3.524-7.717l-5.649-18.276A6.011,6.011,0,0,0,743.518,551.788Z" transform="translate(-285.311 -86.111)" fill="#2f2e41"/>
      <path id="Path_26" data-name="Path 26" d="M829.28,687.45a6.507,6.507,0,0,1-6.892-4.34L782.274,566.821a6.5,6.5,0,0,1,4.025-8.264l13.953-4.813a6.5,6.5,0,0,1,8.264,4.025l40.115,116.29a6.508,6.508,0,0,1-4.025,8.264l-13.953,4.813A6.558,6.558,0,0,1,829.28,687.45Z" transform="translate(-285.311 -86.111)" fill="#ebb2fb"/>
      <path id="Path_27" data-name="Path 27" d="M811.506,555.778l15.4,48.045a6,6,0,0,1-2.951,7.738l-20.26,9.657a6,6,0,0,1-8.4-3.934l-12.83-50.328a6.011,6.011,0,0,1,3.712-7.629l17.694-7.268A6.011,6.011,0,0,1,811.506,555.778Z" transform="translate(-285.311 -86.111)" fill="#2f2e41"/>
      <path id="Path_28" data-name="Path 28" d="M764.891,812.114h-14.76a6.507,6.507,0,0,1-6.5-6.5V682.6a6.507,6.507,0,0,1,6.5-6.5H764.89a6.508,6.508,0,0,1,6.5,6.5V805.614a6.507,6.507,0,0,1-6.5,6.5Z" transform="translate(-285.311 -86.111)" fill="#2f2e41"/>
      <path id="Path_29" data-name="Path 29" d="M794.083,812.114h-14.76a6.507,6.507,0,0,1-6.5-6.5V682.6a6.508,6.508,0,0,1,6.5-6.5h14.76a6.508,6.508,0,0,1,6.5,6.5V805.614A6.507,6.507,0,0,1,794.083,812.114Z" transform="translate(-285.311 -86.111)" fill="#2f2e41"/>
      <path id="Path_30" data-name="Path 30" d="M806.247,697.062H739.184a7.008,7.008,0,0,1-7-7V581.117a40.531,40.531,0,1,1,81.063,0V690.062a7.008,7.008,0,0,1-7,7Z" transform="translate(-285.311 -86.111)" fill="#ccc"/>
      <path id="Path_31" data-name="Path 31" d="M816.341,723.711h-34V531.556l.632.172a45.382,45.382,0,0,1,33.368,43.688Z" transform="translate(-285.311 -86.111)" fill="#2f2e41"/>
      <path id="Path_32" data-name="Path 32" d="M760.326,723.711h-34V575.416a45.382,45.382,0,0,1,33.368-43.687l.632-.172Z" transform="translate(-285.311 -86.111)" fill="#2f2e41"/>
      <circle id="Ellipse_5" data-name="Ellipse 5" cx="53.519" cy="53.519" r="53.519" transform="translate(433.378 324.902)" fill="#ebb2fb"/>
      <path id="Path_33" data-name="Path 33" d="M832.715,452.21s3-83-36-56c0,0-22.5-75.5-77.5,37.5l-16,16s72-10,139,21Z" transform="translate(-285.311 -86.111)" fill="#2f2e41"/>
      <path id="Path_34" data-name="Path 34" d="M773.024,491.036c-3.306-.092-7.42-.207-10.59-2.522a8.133,8.133,0,0,1-3.2-6.073,5.471,5.471,0,0,1,1.86-4.493c1.656-1.4,4.073-1.727,6.678-.961l-2.7-19.726,1.981-.271,3.173,23.19-1.655-.759c-1.918-.88-4.552-1.328-6.188.055a3.515,3.515,0,0,0-1.153,2.9,6.147,6.147,0,0,0,2.381,4.528c2.467,1.8,5.746,2.034,9.466,2.138Z" transform="translate(-285.311 -86.111)" fill="#2f2e41"/>
      <rect id="Rectangle_10" data-name="Rectangle 10" width="10.772" height="2" transform="translate(459.192 372.852)" fill="#2f2e41"/>
      <rect id="Rectangle_11" data-name="Rectangle 11" width="10.772" height="2" transform="translate(493.192 372.852)" fill="#2f2e41"/>
      <path id="Path_35" data-name="Path 35" d="M652.882,626.944a6,6,0,0,1-7.968-2.918L610.4,549.642a6,6,0,0,1,10.885-5.05L655.8,618.976a6,6,0,0,1-2.917,7.968Z" transform="translate(-285.311 -86.111)" fill="#3f3d56"/>
      <path id="Path_36" data-name="Path 36" d="M617.425,546.905a4,4,0,0,1-4-4V491.953h-50a4,4,0,0,1,0-8h54a4,4,0,0,1,4,4v54.953a4,4,0,0,1-4,4Z" transform="translate(-285.311 -86.111)" fill="#ebb2fb"/>
      <path id="Path_37" data-name="Path 37" d="M618.371,552.56a48,48,0,1,1,23.34-63.743,48,48,0,0,1-23.34,63.743Zm-35.353-76.2a36,36,0,1,0,47.808,17.505,36,36,0,0,0-47.808-17.505Z" transform="translate(-285.311 -86.111)" fill="#3f3d56"/>
    </g>
    <g id="Artboard_1" data-name="Artboard 1" transform="translate(1175.042 -907.333)">
      <text id="TA" transform="translate(299.605 328.27)" fill="#bf90c1" font-size="118" font-family="Algerian" opacity="0.3"><tspan x="0" y="0">TA</tspan></text>
      <path id="Path_55" data-name="Path 55" d="M387.359,237.62,351.016,347.513l98.257-67.482L335.54,276.123l90.853,71.39Z" transform="translate(-0.893 -0.799)" fill="#662d91" stroke="#662d91" stroke-linecap="round" stroke-linejoin="round" stroke-width="3"/>
      <path id="Path_56" data-name="Path 56" d="M389.758,245.65l-34.1,99.71,92.218-61.226L341.13,280.589,426.4,345.36Z" transform="translate(-0.994 -0.943)" fill="#9e1f63" stroke="#9e1f63" stroke-linecap="round" stroke-linejoin="round" stroke-width="3"/>
      <path id="Path_57" data-name="Path 57" d="M331,272.212l1.826,24.324A262.189,262.189,0,0,1,488.2,290.889c-22.468-14.946-58.506-33.328-102.44-31.522A152.481,152.481,0,0,0,331,272.212Z" transform="translate(-0.812 -1.188)" fill="url(#linear-gradient)"/>
      <ellipse id="Ellipse_21" data-name="Ellipse 21" cx="102.607" cy="95.517" rx="102.607" ry="95.517" transform="translate(285.958 196.845) rotate(-0.99)" fill="none"/>
    </g>
  </g>
</svg>
